<svg width="20" height="21" viewBox="0 0 20 21" fill="none" xmlns="http://www.w3.org/2000/svg">
<path fill-rule="evenodd" clip-rule="evenodd" d="M9.69435 20.1713C9.66569 20.1438 9.62151 20.1034 9.56025 20.0524C9.39457 19.9147 9.10393 19.6999 8.65736 19.4566C7.39536 18.7687 4.88803 17.8519 0.436321 17.7954C0.320036 17.7937 0.209065 17.7464 0.127412 17.6636C0.0457593 17.5808 -1.13934e-05 17.4691 2.12776e-09 17.3528V3.39941C-5.74246e-06 3.34077 0.0116423 3.28272 0.0342673 3.22862C0.0568922 3.17452 0.0900428 3.12546 0.131793 3.08429C0.173543 3.04312 0.223059 3.01065 0.277465 2.98878C0.33187 2.96691 0.39008 2.95607 0.448712 2.95689C5.11728 3.01804 7.64528 4.02634 8.83974 4.7211C9.26513 3.68594 10.8083 1.27046 14.4595 0.0238707C14.5262 0.00105386 14.5973 -0.00553285 14.6669 0.00465789C14.7366 0.0148486 14.8029 0.0415225 14.8602 0.0824628C14.9175 0.123403 14.9642 0.177427 14.9964 0.240046C15.0286 0.302665 15.0454 0.372069 15.0454 0.442491V3.28656C16.3607 3.07675 17.6901 2.96625 19.022 2.95689C19.0806 2.95607 19.1389 2.96691 19.1933 2.98878C19.2477 3.01065 19.2972 3.04312 19.3389 3.08429C19.3807 3.12546 19.4138 3.17452 19.4365 3.22862C19.4591 3.28272 19.4707 3.34077 19.4707 3.39941V17.3528C19.4707 17.4691 19.425 17.5808 19.3433 17.6636C19.2617 17.7464 19.1507 17.7937 19.0344 17.7954C14.5827 17.8519 12.0754 18.7687 10.8134 19.4566C10.3668 19.6999 10.0762 19.9147 9.91048 20.0524C9.89614 20.0644 9.88274 20.0757 9.87026 20.0864C9.81169 20.3187 9.7665 20.5552 9.73522 20.7946L9.69435 20.1713ZM10.8134 18.0365V18.249C10.9594 18.1804 11.1151 18.1113 11.2809 18.0425C12.7635 17.4269 15.0367 16.8366 18.3927 16.7312V4.04735C17.3285 4.08157 16.2673 4.18287 15.2154 4.35066C15.1583 4.35978 15.1015 4.36422 15.0454 4.36428V14.4596C13.9551 14.602 12.9277 15.7046 12.0664 16.6289C11.8638 16.8463 11.6704 17.0539 11.4875 17.2367C11.2392 17.485 11.014 17.7527 10.8134 18.0365ZM9.73536 5.50186C9.7587 5.43042 9.77478 5.3557 9.78272 5.27857C9.78579 5.2685 9.78997 5.25548 9.79553 5.23933C9.82222 5.16184 9.87125 5.04133 9.94978 4.88585C10.1062 4.57626 10.3641 4.15864 10.7512 3.70153C11.4074 2.92664 12.4332 2.03964 13.9674 1.36976V13.6638C13.3501 13.9409 12.818 14.3691 12.3923 14.7602C12.0607 15.0648 11.7496 15.3897 11.4727 15.6852C11.4015 15.7611 11.3335 15.8341 11.2681 15.9043C11.0692 16.1177 10.8935 16.3062 10.7253 16.4745C10.3489 16.8508 10.0175 17.2652 9.73536 17.709L9.73536 5.50186ZM8.65736 5.88134V18.249C8.51132 18.1804 8.35561 18.1113 8.18982 18.0425C6.70723 17.4269 4.43405 16.8366 1.078 16.7312V4.04976C4.1733 4.15395 6.16448 4.69761 7.36444 5.1961C7.99425 5.45773 8.41031 5.70862 8.65736 5.88134Z" fill="#EE0000"/>
</svg>
